<svg width="458" height="194" viewBox="0 0 458 194" fill="none" xmlns="http://www.w3.org/2000/svg">
<g clip-path="url(#clip0_21_334)">
<rect x="49.2305" y="0.719238" width="114.349" height="166.441" rx="18.2673" transform="rotate(17 49.2305 0.719238)" fill="#19CB4A"/>
<path d="M88.8529 60.7483C82.768 58.8879 79.3706 52.2462 81.182 46.3214C83.0423 40.2365 89.5239 36.7902 95.6088 38.6505C101.694 40.5108 105.14 46.9925 103.28 53.0774C101.468 59.0021 94.9377 62.6086 88.8529 60.7483ZM52.0561 150.179L76.5342 70.1143L93.8281 75.4015L69.35 155.466L52.0561 150.179Z" fill="black"/>
<path d="M177.974 71.3551C196.895 71.3551 209.621 84.4159 209.621 105.347V157.255H191.537V106.519C191.537 94.7975 185.174 88.2671 175.295 88.2671C164.579 88.2671 157.043 95.1324 157.043 110.37V157.255H138.959V106.519C138.959 94.7975 133.099 88.2671 123.22 88.2671C113.005 88.2671 104.633 95.1324 104.633 110.37V157.255H86.549V73.5319H104.633V83.5786C109.991 75.3738 118.196 71.3551 128.578 71.3551C139.462 71.3551 147.499 76.211 152.355 84.5833C157.881 75.8762 166.755 71.3551 177.974 71.3551ZM307.005 71.3551C325.926 71.3551 338.652 84.4159 338.652 105.347V157.255H320.568V106.519C320.568 94.7975 314.205 88.2671 304.326 88.2671C293.609 88.2671 286.074 95.1324 286.074 110.37V157.255H267.99V106.519C267.99 94.7975 262.13 88.2671 252.25 88.2671C242.036 88.2671 233.664 95.1324 233.664 110.37V157.255H215.58V73.5319H233.664V83.5786C239.022 75.3738 247.227 71.3551 257.609 71.3551C268.493 71.3551 276.53 76.211 281.386 84.5833C286.912 75.8762 295.786 71.3551 307.005 71.3551ZM353.653 60.9735C347.29 60.9735 342.099 55.6153 342.099 49.4198C342.099 43.0569 347.29 37.8661 353.653 37.8661C360.016 37.8661 365.207 43.0569 365.207 49.4198C365.207 55.6153 360.016 60.9735 353.653 60.9735ZM344.611 157.255V73.5319H362.695V157.255H344.611ZM384.53 123.096C387.376 136.156 397.925 142.854 411.321 142.854C421.367 142.854 428.902 138.333 432.921 132.473L447.824 141.18C440.121 152.566 427.563 159.431 411.153 159.431C383.525 159.431 365.608 140.51 365.608 115.393C365.608 90.6113 383.525 71.3551 409.814 71.3551C434.763 71.3551 451.842 91.4486 451.842 115.561C451.842 118.072 451.508 120.751 451.173 123.096H384.53ZM384.362 108.361H433.591C431.079 93.9602 420.53 87.7648 409.646 87.7648C396.083 87.7648 386.874 95.8021 384.362 108.361Z" fill="black"/>
<ellipse cx="92.265" cy="49.7128" rx="11.515" ry="11.5164" fill="black"/>
</g>
<defs>
<clipPath id="clip0_21_334">
<rect width="457.432" height="192.601" fill="white" transform="translate(0.567871 0.719238)"/>
</clipPath>
</defs>
</svg>
