<svg width="492" height="185" viewBox="0 0 492 185" fill="none" xmlns="http://www.w3.org/2000/svg">
<path fill-rule="evenodd" clip-rule="evenodd" d="M43.2933 135.797C19.3831 135.797 3.0463e-06 116.414 3.0463e-06 92.504V92.504V43.3013C-0.00886918 19.3955 19.3634 0.00887223 43.2692 0C43.2772 0 43.2852 0 43.2933 0H92.496C116.407 0.00444013 135.789 19.3898 135.789 43.3013V49.2268H141.699C165.6 49.2179 184.983 68.5866 184.992 92.4879C184.992 92.4933 184.992 92.4986 184.992 92.504V141.707C184.996 165.613 165.621 184.996 141.715 185C141.709 185 141.704 185 141.699 185H92.496C68.5947 185 49.2188 165.624 49.2188 141.723C49.2188 141.717 49.2188 141.712 49.2188 141.707V135.797L43.2933 135.797ZM92.496 49.2268C102.011 49.2094 111.265 52.3401 118.816 58.1312V43.3013C118.816 28.7654 107.032 16.9817 92.496 16.9817H43.2933C28.7618 16.9773 16.9781 28.7537 16.9737 43.2852C16.9737 43.2906 16.9737 43.2959 16.9737 43.3013V92.504C16.9737 107.04 28.7573 118.824 43.2933 118.824H49.2188V92.504C49.2188 68.6027 68.5947 49.2268 92.496 49.2268ZM118.816 92.504C118.816 77.9681 107.032 66.1842 92.4965 66.1839C77.9605 66.1837 66.1766 77.9672 66.1764 92.5031C66.1764 92.5034 66.1764 92.5037 66.1764 92.504C66.1761 107.04 77.9596 118.824 92.4955 118.824C107.031 118.824 118.815 107.041 118.816 92.505C118.816 92.5046 118.816 92.5043 118.816 92.504ZM135.789 66.1844V92.504C135.788 116.414 116.405 135.797 92.4946 135.796C82.9802 135.796 73.7307 132.661 66.1764 126.877V141.707C66.1764 156.243 77.9601 168.026 92.496 168.026H92.496H141.699C156.23 168.031 168.014 156.254 168.018 141.723C168.018 141.717 168.018 141.712 168.018 141.707V92.504C168.018 77.9681 156.235 66.1844 141.699 66.1844H135.789Z" fill="black"/>
<path fill-rule="evenodd" clip-rule="evenodd" d="M118.815 92.5042H135.789C135.788 116.414 116.405 135.797 92.4945 135.796C82.9801 135.796 73.7306 132.661 66.1763 126.877V92.5042C66.1664 107.04 77.942 118.832 92.4779 118.842C107.014 118.852 118.806 107.076 118.815 92.5401C118.815 92.5281 118.815 92.5161 118.815 92.5042H118.815Z" fill="url(#paint0_linear_1212_54)"/>
<path fill-rule="evenodd" clip-rule="evenodd" d="M43.2933 135.797C19.3831 135.797 0 116.414 0 92.5042V92.5042H16.9737C16.9737 107.04 28.7573 118.824 43.2933 118.824H49.2188V135.797L43.2933 135.797Z" fill="url(#paint1_linear_1212_54)"/>
<path fill-rule="evenodd" clip-rule="evenodd" d="M66.1763 92.5043H49.2026C49.2034 68.5941 68.587 49.2117 92.4972 49.2124C102.012 49.2127 111.261 52.3473 118.816 58.1315V92.5043C118.816 77.9684 107.032 66.1845 92.4964 66.1843C77.9604 66.184 66.1766 77.9675 66.1763 92.5034C66.1763 92.5037 66.1763 92.504 66.1763 92.5043Z" fill="url(#paint2_linear_1212_54)"/>
<path fill-rule="evenodd" clip-rule="evenodd" d="M141.698 49.2106C165.609 49.2106 184.992 68.5936 184.992 92.5038V92.5038H168.018C168.018 77.9679 156.234 66.1842 141.698 66.1842H135.773V49.2106H141.698Z" fill="url(#paint3_linear_1212_54)"/>
<path d="M256.029 48.4189V33.1209C233.965 31.65 222.785 43.1234 222.785 62.9813V64.4523H211.606V79.7502H222.785V138H238.672V79.7502H256.029V64.4523H238.672V62.9813C238.672 51.655 244.85 47.3892 256.029 48.4189ZM306.07 64.4523V103.874C306.07 118.878 297.833 125.056 287.389 125.056C277.387 125.056 270.914 119.172 270.914 107.993V64.4523H255.028V109.611C255.028 128.733 266.796 139.912 283.27 139.912C293.273 139.912 301.216 136.235 306.07 128.586V138H321.956V64.4523H306.07ZM345.545 84.7514C345.545 79.456 350.546 76.9554 356.283 76.9554C362.313 76.9554 367.462 79.6031 370.11 85.3398L383.495 77.8379C378.347 68.1296 368.344 62.54 356.283 62.54C341.279 62.54 329.364 71.2187 329.364 85.0456C329.364 111.376 368.933 104.021 368.933 117.112C368.933 122.996 363.49 125.35 356.43 125.35C348.339 125.35 342.456 121.378 340.102 114.759L326.422 122.702C331.129 133.293 341.72 139.912 356.43 139.912C372.316 139.912 385.113 131.969 385.113 117.26C385.113 90.0469 345.545 98.1371 345.545 84.7514ZM400.888 107.993H459.432C459.726 105.933 460.02 103.58 460.02 101.373C460.02 80.1915 445.017 62.54 423.1 62.54C400.006 62.54 384.266 79.456 384.266 101.226C384.266 123.29 400.006 139.912 424.276 139.912C438.692 139.912 449.724 133.881 456.49 123.879L443.399 116.23C439.868 121.378 433.249 125.35 424.423 125.35C412.656 125.35 403.389 119.466 400.888 107.993ZM400.741 95.0481C402.947 84.016 411.038 76.9554 422.952 76.9554C432.514 76.9554 441.781 82.3979 443.987 95.0481H400.741Z" fill="black"/>
<defs>
<linearGradient id="paint0_linear_1212_54" x1="135.789" y1="114.15" x2="66.1763" y2="114.15" gradientUnits="userSpaceOnUse">
<stop/>
<stop offset="0.3"/>
<stop offset="1" stop-color="#6F6F6F"/>
</linearGradient>
<linearGradient id="paint1_linear_1212_54" x1="0" y1="114.151" x2="49.2188" y2="114.151" gradientUnits="userSpaceOnUse">
<stop/>
<stop offset="0.3"/>
<stop offset="1" stop-color="#8B8B8B"/>
</linearGradient>
<linearGradient id="paint2_linear_1212_54" x1="49.2027" y1="70.8585" x2="118.816" y2="70.8585" gradientUnits="userSpaceOnUse">
<stop/>
<stop offset="0.3"/>
<stop offset="1" stop-color="#737373"/>
</linearGradient>
<linearGradient id="paint3_linear_1212_54" x1="184.992" y1="70.8572" x2="135.773" y2="70.8572" gradientUnits="userSpaceOnUse">
<stop/>
<stop offset="0.3"/>
<stop offset="1" stop-color="#787878"/>
</linearGradient>
</defs>
</svg>
